<svg width="138" height="88" viewBox="0 0 138 88" fill="none" xmlns="http://www.w3.org/2000/svg">
<g clip-path="url(#clip0_760_10704)">
<path d="M36.904 0H35.1511C32.448 -9.78265e-08 29.7713 0.533956 27.2739 1.57136C24.7766 2.60877 22.5075 4.12931 20.5963 6.04613C18.6852 7.96296 17.1693 10.2385 16.1353 12.7428C15.1014 15.2472 14.5696 17.9312 14.5703 20.6416V28.9582H38.6569C41.36 28.9589 44.0369 28.4257 46.5345 27.3889C49.0321 26.3522 51.3016 24.8323 53.2133 22.9159C55.125 20.9996 56.6414 18.7245 57.6761 16.2204C58.7107 13.7164 59.2432 11.0325 59.2432 8.32206V0.00553285L36.904 0Z" fill="#0385FF"/>
<path d="M0 48.3246V47.4486C0 44.7076 1.08588 42.079 3.01882 40.1409C4.95176 38.2027 7.57339 37.1139 10.307 37.1139H14.4984V49.2061C14.4984 51.9456 13.413 54.5728 11.4811 56.5099C9.54922 58.447 6.929 59.5353 4.19688 59.5353H0.0276408L0 48.3246Z" fill="#06B9FF"/>
<path d="M31.8889 14.5095H30.5341C26.2812 14.5095 22.2025 16.2035 19.1952 19.2189C16.188 22.2342 14.4985 26.3238 14.4985 30.5881V37.0972H33.2989C37.5518 37.0972 41.6305 35.4032 44.6377 32.3879C47.645 29.3726 49.3344 25.2829 49.3344 21.0186V14.5095H31.8889Z" fill="#06B9FF"/>
<path d="M58.6792 87.0908V59.8902H63.3571V71.5333H62.8042C62.7483 69.2129 63.1233 66.9023 63.9101 64.7193C64.5347 62.9932 65.6983 61.5154 67.2278 60.5056C68.8768 59.4987 70.7836 58.9976 72.7131 59.0641H72.9674C76.3183 59.0641 78.8177 60.1249 80.4654 62.2465C82.1132 64.3682 82.9353 67.4638 82.9316 71.5333V87.0575H76.9819V70.7405C77.057 69.066 76.48 67.4278 75.3728 66.172C74.802 65.5822 74.1119 65.1217 73.3489 64.8214C72.5859 64.5211 71.7677 64.388 70.9492 64.431C70.0956 64.3951 69.2438 64.5356 68.4467 64.8436C67.6496 65.1517 66.9242 65.6208 66.3155 66.2218C65.7182 66.8587 65.2547 67.6095 64.9526 68.4296C64.6505 69.2497 64.516 70.1223 64.5571 70.9956V87.0742L58.6792 87.0908Z" fill="#06B9FF"/>
<path d="M100.505 88C98.4154 88.0499 96.3402 87.6451 94.4221 86.8135C92.7701 86.0795 91.3079 84.9757 90.1478 83.5867C89.0305 82.2431 88.1752 80.7008 87.6263 79.0403C87.0784 77.4072 86.7983 75.6958 86.7969 73.9728V73.0635C86.7937 71.3034 87.0833 69.5551 87.654 67.8906C88.2173 66.2356 89.0878 64.7024 90.2197 63.372C91.3875 62.0061 92.8387 60.9125 94.4719 60.1673C96.3498 59.338 98.3867 58.933 100.438 58.9808C102.582 58.944 104.707 59.3932 106.653 60.2949C108.429 61.1172 109.956 62.3971 111.077 64.004C112.197 65.6552 112.837 67.5865 112.924 69.5816H107.251C107.064 68.0948 106.337 66.7291 105.21 65.745C104.056 64.7026 102.471 64.1814 100.455 64.1814C98.9767 64.096 97.5103 64.4882 96.2711 65.3006C95.0319 66.113 94.0853 67.3026 93.5706 68.6946C92.9746 70.2312 92.6834 71.8697 92.7135 73.5181C92.6902 75.1365 92.9716 76.7448 93.5429 78.2586C94.0451 79.6024 94.9415 80.7622 96.1141 81.5852C97.4261 82.4429 98.9729 82.8675 100.538 82.7994C101.761 82.8319 102.976 82.5815 104.088 82.0675C105.032 81.6158 105.852 80.9402 106.476 80.0993C107.085 79.2635 107.45 78.2752 107.533 77.2439H113.272C113.222 79.2791 112.574 81.2541 111.409 82.9214C110.248 84.5399 108.687 85.8277 106.88 86.6583C104.882 87.5802 102.703 88.0389 100.505 88Z" fill="#06B9FF"/>
<path d="M124.536 87.8004C122.752 87.8389 120.981 87.485 119.349 86.7636C117.929 86.125 116.735 85.0694 115.926 83.7363C115.093 82.2892 114.675 80.6387 114.721 78.9682C114.653 77.2463 115.137 75.5478 116.103 74.1224C117.101 72.7855 118.48 71.7825 120.057 71.2449C122.03 70.5633 124.108 70.2385 126.194 70.2857H132.99V74.1668H126.023C124.242 74.1668 122.884 74.5955 121.948 75.4531C121.488 75.873 121.123 76.3876 120.88 76.9618C120.637 77.536 120.52 78.1561 120.538 78.7797C120.51 79.4046 120.622 80.028 120.866 80.6037C121.11 81.1794 121.479 81.6929 121.948 82.1063C122.882 82.9269 124.242 83.3427 126.023 83.3427C127.041 83.3463 128.05 83.1485 128.992 82.7605C129.946 82.36 130.76 81.6847 131.331 80.82C132.024 79.6618 132.382 78.3336 132.365 76.9833L133.875 78.9516C133.774 80.6402 133.302 82.2855 132.493 83.7696C131.76 85.044 130.675 86.0782 129.368 86.7469C127.865 87.4807 126.207 87.842 124.536 87.8004ZM133.344 87.0907V78.9682H132.387V69.7812C132.387 68.0994 131.951 66.8205 131.077 65.9445C130.203 65.074 128.915 64.636 127.206 64.636C126.266 64.636 125.227 64.6527 124.088 64.6859C122.949 64.7192 121.843 64.7599 120.77 64.8079C119.664 64.8633 118.713 64.9188 117.872 64.9853V59.8901C118.613 59.8235 119.426 59.7625 120.317 59.7126C121.207 59.6627 122.125 59.6184 123.081 59.5851C124.038 59.5519 124.956 59.5352 125.846 59.5352C128.173 59.4667 130.493 59.8256 132.692 60.5942C134.39 61.2089 135.823 62.3967 136.745 63.9541C137.633 65.4843 138.077 67.5283 138.077 70.0861V87.0907H133.344Z" fill="#06B9FF"/>
<path d="M48.361 56.1034C49.5996 56.1034 50.5064 55.7874 51.076 55.1442C51.6309 54.4454 51.933 53.5786 51.933 52.6853C51.933 51.792 51.6309 50.9252 51.076 50.2264C50.5083 49.5648 49.6032 49.2358 48.361 49.2395C47.8676 49.199 47.3714 49.2662 46.9065 49.4366C46.4416 49.607 46.0191 49.8764 45.6681 50.2264C45.1617 50.7209 44.8204 51.3604 44.6911 52.0572C44.5618 52.754 44.6508 53.4738 44.9458 54.1179C45.2409 54.7619 45.7277 55.2985 46.3392 55.654C46.9507 56.0096 47.6569 56.1665 48.361 56.1034Z" fill="#06B9FF"/>
<path d="M46.3982 59.9899H33.4591V57.9219C33.4062 56.9622 33.7319 56.0202 34.366 55.2994C34.7112 54.9639 35.123 54.7051 35.5746 54.5399C36.0262 54.3746 36.5074 54.3066 36.9869 54.3402H40.559V49.6442H37.6394C34.4139 49.6442 31.9809 50.3834 30.3405 51.8619C28.7001 53.3404 27.878 55.6025 27.8743 58.6482V60.0121H24.3022V64.4032H27.8743V87.1351H33.4591V64.4032H46.3982V87.1351H52.3369V59.9899H46.3982Z" fill="#06B9FF"/>
</g>
<defs>
<clipPath id="clip0_760_10704">
<rect width="138" height="88" fill="white"/>
</clipPath>
</defs>
</svg>
